<?xml version="1.0" encoding="UTF-8"?>
<!DOCTYPE svg PUBLIC "-//W3C//DTD SVG 1.1//EN" "http://www.w3.org/Graphics/SVG/1.1/DTD/svg11.dtd">
<svg xmlns="http://www.w3.org/2000/svg" version="1.1" width="1264px" height="258px" style="shape-rendering:geometricPrecision; text-rendering:geometricPrecision; image-rendering:optimizeQuality; fill-rule:evenodd; clip-rule:evenodd" xmlns:xlink="http://www.w3.org/1999/xlink">
<g><path style="opacity:1" fill="#acb9de" d="M -0.5,-0.5 C 0.166667,-0.5 0.833333,-0.5 1.5,-0.5C 1.5,85.5 1.5,171.5 1.5,257.5C 0.833333,257.5 0.166667,257.5 -0.5,257.5C -0.5,171.5 -0.5,85.5 -0.5,-0.5 Z"/></g>
<g><path style="opacity:1" fill="#2e54ad" d="M 1.5,-0.5 C 422.167,-0.5 842.833,-0.5 1263.5,-0.5C 1263.5,85.5 1263.5,171.5 1263.5,257.5C 842.833,257.5 422.167,257.5 1.5,257.5C 1.5,171.5 1.5,85.5 1.5,-0.5 Z"/></g>
<g><path style="opacity:1" fill="#f9fafc" d="M 230.5,113.5 C 230.5,115.167 230.5,116.833 230.5,118.5C 230.5,135.5 230.5,152.5 230.5,169.5C 244.5,169.5 258.5,169.5 272.5,169.5C 272.5,152.5 272.5,135.5 272.5,118.5C 259.01,117.504 245.344,117.171 231.5,117.5C 231.5,116.167 231.5,114.833 231.5,113.5C 232.863,109.298 235.53,106.131 239.5,104C 246.09,102.893 252.757,102.393 259.5,102.5C 265.167,102.667 270.833,102.833 276.5,103C 282.307,104.807 286.141,108.64 288,114.5C 288.667,134.167 288.667,153.833 288,173.5C 286.167,179.333 282.333,183.167 276.5,185C 259.833,185.667 243.167,185.667 226.5,185C 221.667,182.833 218.167,179.333 216,174.5C 215.5,140.168 215.333,105.835 215.5,71.5C 220.5,71.5 225.5,71.5 230.5,71.5C 230.5,85.5 230.5,99.5 230.5,113.5 Z"/></g>
<g><path style="opacity:1" fill="#fcfcfd" d="M 898.5,184.5 C 893.5,184.5 888.5,184.5 883.5,184.5C 883.831,162.327 883.497,140.327 882.5,118.5C 876.167,118.5 869.833,118.5 863.5,118.5C 863.5,113.5 863.5,108.5 863.5,103.5C 870.167,103.5 876.833,103.5 883.5,103.5C 883.5,96.8333 883.5,90.1667 883.5,83.5C 884.851,77.9799 888.184,74.1465 893.5,72C 904.161,71.5002 914.828,71.3335 925.5,71.5C 925.5,76.5 925.5,81.5 925.5,86.5C 916.5,86.5 907.5,86.5 898.5,86.5C 898.5,91.8333 898.5,97.1667 898.5,102.5C 907.5,102.5 916.5,102.5 925.5,102.5C 925.5,107.833 925.5,113.167 925.5,118.5C 916.5,118.5 907.5,118.5 898.5,118.5C 898.5,140.5 898.5,162.5 898.5,184.5 Z"/></g>
<g><path style="opacity:1" fill="#fcfcfd" d="M 941.5,118.5 C 941.5,113.5 941.5,108.5 941.5,103.5C 948.354,103.824 955.021,103.491 961.5,102.5C 961.334,95.4921 961.5,88.4921 962,81.5C 963.833,77 967,73.8333 971.5,72C 982.161,71.5002 992.828,71.3335 1003.5,71.5C 1003.5,76.5 1003.5,81.5 1003.5,86.5C 994.5,86.5 985.5,86.5 976.5,86.5C 976.5,91.8333 976.5,97.1667 976.5,102.5C 985.5,102.5 994.5,102.5 1003.5,102.5C 1003.5,107.833 1003.5,113.167 1003.5,118.5C 994.5,118.5 985.5,118.5 976.5,118.5C 976.5,140.833 976.5,163.167 976.5,185.5C 971.5,185.5 966.5,185.5 961.5,185.5C 961.5,163.167 961.5,140.833 961.5,118.5C 954.833,118.5 948.167,118.5 941.5,118.5 Z"/></g>
<g><path style="opacity:1" fill="#899ed0" d="M 489.5,71.5 C 489.5,76.5 489.5,81.5 489.5,86.5C 494.833,86.5 500.167,86.5 505.5,86.5C 505.5,81.5 505.5,76.5 505.5,71.5C 506.488,76.6405 506.821,81.9738 506.5,87.5C 500.5,87.5 494.5,87.5 488.5,87.5C 488.179,81.9738 488.512,76.6405 489.5,71.5 Z"/></g>
<g><path style="opacity:1" fill="#fefffe" d="M 489.5,71.5 C 494.833,71.5 500.167,71.5 505.5,71.5C 505.5,76.5 505.5,81.5 505.5,86.5C 500.167,86.5 494.833,86.5 489.5,86.5C 489.5,81.5 489.5,76.5 489.5,71.5 Z"/></g>
<g><path style="opacity:1" fill="#98aad6" d="M 145.5,107.5 C 145.5,106.167 145.5,104.833 145.5,103.5C 123.167,103.5 100.833,103.5 78.5,103.5C 78.5,108.167 78.5,112.833 78.5,117.5C 78.5,117.833 78.5,118.167 78.5,118.5C 77.5119,113.36 77.1786,108.026 77.5,102.5C 100.5,102.5 123.5,102.5 146.5,102.5C 146.784,104.415 146.451,106.081 145.5,107.5 Z"/></g>
<g><path style="opacity:1" fill="#a6b6db" d="M 531.5,103.5 C 531.5,103.167 531.5,102.833 531.5,102.5C 536.5,102.5 541.5,102.5 546.5,102.5C 546.185,106.371 546.518,110.038 547.5,113.5C 547.013,114.473 546.513,115.473 546,116.5C 545.501,112.179 545.334,107.846 545.5,103.5C 540.833,103.5 536.167,103.5 531.5,103.5 Z"/></g>
<g><path style="opacity:1" fill="#859bcf" d="M 883.5,83.5 C 883.5,90.1667 883.5,96.8333 883.5,103.5C 876.833,103.5 870.167,103.5 863.5,103.5C 863.5,108.5 863.5,113.5 863.5,118.5C 862.512,113.36 862.179,108.026 862.5,102.5C 869.167,102.5 875.833,102.5 882.5,102.5C 882.177,95.9779 882.51,89.6446 883.5,83.5 Z"/></g>
<g><path style="opacity:1" fill="#fdfdfe" d="M 145.5,107.5 C 131.5,127.833 117.5,148.167 103.5,168.5C 102.957,168.56 102.624,168.893 102.5,169.5C 116.818,170.499 131.151,170.833 145.5,170.5C 145.5,175.167 145.5,179.833 145.5,184.5C 122.5,184.5 99.5,184.5 76.5,184.5C 76.3398,182.801 76.5065,181.134 77,179.5C 91.0298,159.32 105.196,139.32 119.5,119.5C 120.043,119.44 120.376,119.107 120.5,118.5C 106.516,117.501 92.5159,117.167 78.5,117.5C 78.5,112.833 78.5,108.167 78.5,103.5C 100.833,103.5 123.167,103.5 145.5,103.5C 145.5,104.833 145.5,106.167 145.5,107.5 Z"/></g>
<g><path style="opacity:1" fill="#fbfcfd" d="M 374.5,114.5 C 374.5,120.167 374.5,125.833 374.5,131.5C 369.833,131.5 365.167,131.5 360.5,131.5C 360.818,126.968 360.485,122.634 359.5,118.5C 349.167,118.5 338.833,118.5 328.5,118.5C 328.5,140.833 328.5,163.167 328.5,185.5C 323.5,185.5 318.5,185.5 313.5,185.5C 313.5,157.833 313.5,130.167 313.5,102.5C 318.5,102.5 323.5,102.5 328.5,102.5C 328.334,106.514 328.501,110.514 329,114.5C 332.829,104.252 340.162,100.585 351,103.5C 356.58,103.409 362.08,103.909 367.5,105C 371.431,107.042 373.764,110.209 374.5,114.5 Z"/></g>
<g><path style="opacity:1" fill="#fafbfd" d="M 451.5,103.5 C 457.02,104.851 460.853,108.184 463,113.5C 463.5,137.498 463.667,161.498 463.5,185.5C 458.5,185.5 453.5,185.5 448.5,185.5C 448.665,181.818 448.499,178.152 448,174.5C 445.525,180.646 441.025,184.146 434.5,185C 424.833,185.667 415.167,185.667 405.5,185C 401.618,183.321 398.452,180.821 396,177.5C 394.899,171.411 394.399,165.245 394.5,159C 391.418,147.482 395.085,139.149 405.5,134C 419.829,133.5 434.163,133.333 448.5,133.5C 448.5,128.5 448.5,123.5 448.5,118.5C 432.342,117.504 416.009,117.17 399.5,117.5C 399.5,112.833 399.5,108.167 399.5,103.5C 416.833,103.5 434.167,103.5 451.5,103.5 Z"/></g>
<g><path style="opacity:1" fill="#a5b5db" d="M 489.5,102.5 C 494.833,102.5 500.167,102.5 505.5,102.5C 505.5,130.167 505.5,157.833 505.5,185.5C 500.167,185.5 494.833,185.5 489.5,185.5C 489.5,157.833 489.5,130.167 489.5,102.5 Z"/></g>
<g><path style="opacity:1" fill="#fefffe" d="M 490.5,103.5 C 495.167,103.5 499.833,103.5 504.5,103.5C 504.5,130.5 504.5,157.5 504.5,184.5C 499.833,184.5 495.167,184.5 490.5,184.5C 490.5,157.5 490.5,130.5 490.5,103.5 Z"/></g>
<g><path style="opacity:1" fill="#7e96cc" d="M 531.5,102.5 C 531.5,102.833 531.5,103.167 531.5,103.5C 531.5,130.5 531.5,157.5 531.5,184.5C 536.5,184.5 541.5,184.5 546.5,184.5C 541.36,185.488 536.026,185.821 530.5,185.5C 530.169,157.662 530.502,129.995 531.5,102.5 Z"/></g>
<g><path style="opacity:1" fill="#fbfbfd" d="M 603.5,115.5 C 603.5,138.5 603.5,161.5 603.5,184.5C 598.5,184.5 593.5,184.5 588.5,184.5C 588.5,162.5 588.5,140.5 588.5,118.5C 574.5,118.5 560.5,118.5 546.5,118.5C 546.5,140.5 546.5,162.5 546.5,184.5C 541.5,184.5 536.5,184.5 531.5,184.5C 531.5,157.5 531.5,130.5 531.5,103.5C 536.167,103.5 540.833,103.5 545.5,103.5C 545.334,107.846 545.501,112.179 546,116.5C 546.513,115.473 547.013,114.473 547.5,113.5C 549.35,108.151 553.016,104.651 558.5,103C 569.5,102.333 580.5,102.333 591.5,103C 597.783,105.114 601.783,109.281 603.5,115.5 Z"/></g>
<g><path style="opacity:1" fill="#f9f9fc" d="M 745.5,114.5 C 745.5,120.167 745.5,125.833 745.5,131.5C 740.833,131.5 736.167,131.5 731.5,131.5C 731.818,126.968 731.485,122.634 730.5,118.5C 717.5,118.5 704.5,118.5 691.5,118.5C 691.5,135.5 691.5,152.5 691.5,169.5C 704.5,169.5 717.5,169.5 730.5,169.5C 731.485,165.366 731.818,161.032 731.5,156.5C 736.167,156.5 740.833,156.5 745.5,156.5C 745.5,162.167 745.5,167.833 745.5,173.5C 744.083,179.419 740.416,183.252 734.5,185C 718.833,185.667 703.167,185.667 687.5,185C 682.667,182.833 679.167,179.333 677,174.5C 676.333,154.5 676.333,134.5 677,114.5C 678.807,108.693 682.64,104.859 688.5,103C 703.833,102.333 719.167,102.333 734.5,103C 740.389,104.722 744.056,108.555 745.5,114.5 Z"/></g>
<g><path style="opacity:1" fill="#f9fafd" d="M 783.5,102.5 C 799.17,102.333 814.837,102.5 830.5,103C 835.935,104.769 839.768,108.269 842,113.5C 842.667,133.5 842.667,153.5 842,173.5C 840.257,178.91 836.757,182.744 831.5,185C 815.167,185.667 798.833,185.667 782.5,185C 777.667,182.833 774.167,179.333 772,174.5C 771.333,154.167 771.333,133.833 772,113.5C 774.437,108.226 778.271,104.56 783.5,102.5 Z"/></g>
<g><path style="opacity:1" fill="#fcfcfe" d="M 1039.5,169.5 C 1057.33,170.497 1075.33,170.83 1093.5,170.5C 1093.5,175.167 1093.5,179.833 1093.5,184.5C 1074.17,184.5 1054.83,184.5 1035.5,184.5C 1029.96,183.312 1026.46,179.978 1025,174.5C 1024.33,153.833 1024.33,133.167 1025,112.5C 1027.17,109 1030,106.167 1033.5,104C 1049.43,102.379 1065.43,102.046 1081.5,103C 1086.55,104.717 1090.38,107.884 1093,112.5C 1093.5,125.496 1093.67,138.496 1093.5,151.5C 1075.5,151.5 1057.5,151.5 1039.5,151.5C 1039.5,157.5 1039.5,163.5 1039.5,169.5 Z"/></g>
<g><path style="opacity:1" fill="#f9fafc" d="M 1130.5,102.5 C 1145.84,102.333 1161.17,102.5 1176.5,103C 1181.94,104.769 1185.77,108.269 1188,113.5C 1188.5,126.162 1188.67,138.829 1188.5,151.5C 1170.5,151.5 1152.5,151.5 1134.5,151.5C 1134.5,157.5 1134.5,163.5 1134.5,169.5C 1152.5,169.5 1170.5,169.5 1188.5,169.5C 1188.5,174.833 1188.5,180.167 1188.5,185.5C 1169.16,185.667 1149.83,185.5 1130.5,185C 1125.06,183.376 1121.56,179.876 1120,174.5C 1119.33,153.833 1119.33,133.167 1120,112.5C 1122.74,108.26 1126.24,104.926 1130.5,102.5 Z"/></g>
<g><path style="opacity:1" fill="#738bc8" d="M 961.5,102.5 C 955.021,103.491 948.354,103.824 941.5,103.5C 941.5,108.5 941.5,113.5 941.5,118.5C 940.512,113.36 940.179,108.026 940.5,102.5C 947.5,102.5 954.5,102.5 961.5,102.5 Z"/></g>
<g><path style="opacity:1" fill="#ccd5eb" d="M 78.5,118.5 C 78.5,118.167 78.5,117.833 78.5,117.5C 92.5159,117.167 106.516,117.501 120.5,118.5C 120.376,119.107 120.043,119.44 119.5,119.5C 106.01,118.504 92.3435,118.171 78.5,118.5 Z"/></g>
<g><path style="opacity:1" fill="#cbd5eb" d="M 230.5,113.5 C 230.833,113.5 231.167,113.5 231.5,113.5C 231.5,114.833 231.5,116.167 231.5,117.5C 245.344,117.171 259.01,117.504 272.5,118.5C 258.5,118.5 244.5,118.5 230.5,118.5C 230.5,116.833 230.5,115.167 230.5,113.5 Z"/></g>
<g><path style="opacity:1" fill="#b7c4e2" d="M 451.5,103.5 C 434.167,103.5 416.833,103.5 399.5,103.5C 399.5,108.167 399.5,112.833 399.5,117.5C 416.009,117.17 432.342,117.504 448.5,118.5C 431.833,118.5 415.167,118.5 398.5,118.5C 398.5,113.167 398.5,107.833 398.5,102.5C 416.341,102.17 434.008,102.503 451.5,103.5 Z"/></g>
<g><path style="opacity:1" fill="#2e54ad" d="M 230.5,118.5 C 244.5,118.5 258.5,118.5 272.5,118.5C 272.5,135.5 272.5,152.5 272.5,169.5C 258.5,169.5 244.5,169.5 230.5,169.5C 230.5,152.5 230.5,135.5 230.5,118.5 Z"/></g>
<g><path style="opacity:1" fill="#7a92ca" d="M 603.5,115.5 C 604.498,138.661 604.831,161.994 604.5,185.5C 598.974,185.821 593.64,185.488 588.5,184.5C 593.5,184.5 598.5,184.5 603.5,184.5C 603.5,161.5 603.5,138.5 603.5,115.5 Z"/></g>
<g><path style="opacity:1" fill="#2e54ad" d="M 786.5,118.5 C 800.167,118.5 813.833,118.5 827.5,118.5C 827.5,135.5 827.5,152.5 827.5,169.5C 813.833,169.5 800.167,169.5 786.5,169.5C 786.5,152.5 786.5,135.5 786.5,118.5 Z"/></g>
<g><path style="opacity:1" fill="#758dc8" d="M 882.5,118.5 C 883.497,140.327 883.831,162.327 883.5,184.5C 888.5,184.5 893.5,184.5 898.5,184.5C 893.36,185.488 888.026,185.821 882.5,185.5C 882.5,163.167 882.5,140.833 882.5,118.5 Z"/></g>
<g><path style="opacity:1" fill="#2e53ad" d="M 1039.5,118.5 C 1052.5,118.5 1065.5,118.5 1078.5,118.5C 1078.5,124.5 1078.5,130.5 1078.5,136.5C 1065.5,136.5 1052.5,136.5 1039.5,136.5C 1039.5,130.5 1039.5,124.5 1039.5,118.5 Z"/></g>
<g><path style="opacity:1" fill="#2e54ad" d="M 1134.5,118.5 C 1147.5,118.5 1160.5,118.5 1173.5,118.5C 1173.5,124.5 1173.5,130.5 1173.5,136.5C 1160.5,136.5 1147.5,136.5 1134.5,136.5C 1134.5,130.5 1134.5,124.5 1134.5,118.5 Z"/></g>
<g><path style="opacity:1" fill="#a0b1d9" d="M 374.5,114.5 C 375.49,120.31 375.823,126.31 375.5,132.5C 370.167,132.5 364.833,132.5 359.5,132.5C 359.5,127.833 359.5,123.167 359.5,118.5C 360.485,122.634 360.818,126.968 360.5,131.5C 365.167,131.5 369.833,131.5 374.5,131.5C 374.5,125.833 374.5,120.167 374.5,114.5 Z"/></g>
<g><path style="opacity:1" fill="#9daed8" d="M 745.5,114.5 C 746.49,120.31 746.823,126.31 746.5,132.5C 741.167,132.5 735.833,132.5 730.5,132.5C 730.5,127.833 730.5,123.167 730.5,118.5C 731.485,122.634 731.818,126.968 731.5,131.5C 736.167,131.5 740.833,131.5 745.5,131.5C 745.5,125.833 745.5,120.167 745.5,114.5 Z"/></g>
<g><path style="opacity:1" fill="#2e53ad" d="M 409.5,149.5 C 422.5,149.5 435.5,149.5 448.5,149.5C 448.5,156.167 448.5,162.833 448.5,169.5C 435.5,169.5 422.5,169.5 409.5,169.5C 409.5,162.833 409.5,156.167 409.5,149.5 Z"/></g>
<g><path style="opacity:1" fill="#9caed8" d="M 745.5,173.5 C 745.5,167.833 745.5,162.167 745.5,156.5C 740.833,156.5 736.167,156.5 731.5,156.5C 731.818,161.032 731.485,165.366 730.5,169.5C 730.5,164.833 730.5,160.167 730.5,155.5C 735.833,155.5 741.167,155.5 746.5,155.5C 746.823,161.69 746.49,167.69 745.5,173.5 Z"/></g>
<g><path style="opacity:1" fill="#859acf" d="M 1039.5,169.5 C 1057.83,169.5 1076.17,169.5 1094.5,169.5C 1094.5,174.833 1094.5,180.167 1094.5,185.5C 1074.66,185.83 1054.99,185.497 1035.5,184.5C 1054.83,184.5 1074.17,184.5 1093.5,184.5C 1093.5,179.833 1093.5,175.167 1093.5,170.5C 1075.33,170.83 1057.33,170.497 1039.5,169.5 Z"/></g>
<g><path style="opacity:1" fill="#98abd6" d="M 103.5,168.5 C 117.657,169.496 131.99,169.829 146.5,169.5C 146.5,174.833 146.5,180.167 146.5,185.5C 122.994,185.831 99.6607,185.498 76.5,184.5C 99.5,184.5 122.5,184.5 145.5,184.5C 145.5,179.833 145.5,175.167 145.5,170.5C 131.151,170.833 116.818,170.499 102.5,169.5C 102.624,168.893 102.957,168.56 103.5,168.5 Z"/></g>
</svg>
